# File created by Blade
# Date/Time:  Wed Jan 21 17:41:14 2015
# Frame Rate: 120.000 fps
#------------------------------------------------------
:FULLY-SPECIFIED
:DEGREES
1573
root 15.679682 29.622072 -20.840427 -560.299211 74.155266 -582.691168
Spine 19.575873 -4.935714 -3.465504
Head -22.659341 -8.246004 2.855580
LeftShoulder 8.363836 -38.740674 16.045441
LeftArm 53.755576 11.678298 -7.907225
LeftForeArm -0.548107 0.000000 3.493329
LeftHand 1.052531 -0.000000 -8.694378
LeftHandThumb1 -26.253704 0.000000 33.147579
RightShoulder 3.015094 -0.199684 -21.238154
RightArm 42.161734 33.177468 19.652133
RightForeArm -24.977008 -0.000000 8.166676
RightHand 1.679141 -0.000000 10.497429
RightHandThumb1 -24.326973 -0.000000 -32.862282
LeftUpLeg 10.668716 2.379853 -5.519485
LeftLeg 2.004917 -0.000000 -0.000000
LeftFoot -46.038135 14.811749 -19.073920
LeftToeBase 22.539695 -0.000000 -0.000000
RightUpLeg -72.805265 -7.603838 -2.063879
RightLeg 65.544712 -0.000000 -0.000000
RightFoot -34.527152 -23.432043 16.639919
RightToeBase 25.482771 -0.000000 -0.000000
1574
root 15.734446 29.607530 -20.837834 -559.868657 74.109166 -582.256020
Spine 18.108591 -5.044790 -3.481485
Head -21.914852 -8.327953 2.611353
LeftShoulder 7.995591 -38.635506 16.247053
LeftArm 53.661697 11.065996 -7.233473
LeftForeArm -0.704962 -0.000000 3.331261
LeftHand 1.246979 0.000000 -8.122961
LeftHandThumb1 -26.253704 0.000000 33.147579
RightShoulder 2.895108 -0.355807 -21.293148
RightArm 41.673961 33.738160 18.749020
RightForeArm -25.434006 0.000000 8.057913
RightHand 1.684092 -0.000000 10.252186
RightHandThumb1 -24.326973 -0.000000 -32.862282
LeftUpLeg 10.690658 2.577807 -5.392074
LeftLeg 2.080729 -0.000000 -0.000000
LeftFoot -46.086171 14.872936 -19.090264
LeftToeBase 22.538007 -0.000000 -0.000000
RightUpLeg -72.768745 -7.706647 -1.969898
RightLeg 65.758632 -0.000000 -0.000000
RightFoot -34.948917 -22.987858 16.860166
RightToeBase 25.983870 -0.000000 -0.000000
1575
root 15.791697 29.594465 -20.839083 -559.410571 74.050173 -581.791032
Spine 16.667010 -5.148158 -3.452245
Head -21.174750 -8.428908 2.309508
LeftShoulder 7.724314 -38.606360 16.367705
LeftArm 53.494116 10.506093 -6.547301
LeftForeArm -0.714617 -0.000000 3.281462
LeftHand 1.151884 0.000000 -7.454635
LeftHandThumb1 -26.253704 0.000000 33.147579
RightShoulder 2.795479 -0.201385 -21.395387
RightArm 40.899685 33.928316 17.668522
RightForeArm -25.698260 -0.000000 8.157744
RightHand 1.356527 0.000000 9.965236
RightHandThumb1 -24.326973 -0.000000 -32.862282
LeftUpLeg 10.775516 2.568189 -5.301740
LeftLeg 2.048867 -0.000000 -0.000000
LeftFoot -46.112834 15.095903 -19.181665
LeftToeBase 22.383516 -0.000000 -0.000000
RightUpLeg -72.735001 -7.844285 -1.865138
RightLeg 65.992379 -0.000000 -0.000000
RightFoot -35.398291 -22.492058 17.210549
RightToeBase 26.382574 -0.000000 -0.000000
1576
root 15.849587 29.581827 -20.836187 -558.876577 74.010095 -581.230658
Spine 15.277632 -5.169872 -3.365689
Head -20.429465 -8.582447 2.003185
LeftShoulder 7.515875 -38.599644 16.519835
LeftArm 53.257621 9.833027 -6.061742
LeftForeArm -0.756053 -0.000000 3.255665
LeftHand 1.269431 -0.000000 -6.846958
LeftHandThumb1 -26.253704 0.000000 33.147579
RightShoulder 2.621207 -0.105448 -21.514828
RightArm 40.305473 34.376601 16.824279
RightForeArm -26.184378 -0.000000 8.216021
RightHand 1.172400 -0.000000 9.622712
RightHandThumb1 -24.326973 -0.000000 -32.862282
LeftUpLeg 10.814248 2.736595 -5.150605
LeftLeg 2.135378 -0.000000 -0.000000
LeftFoot -46.168386 15.167717 -19.237031
LeftToeBase 22.361311 -0.000000 -0.000000
RightUpLeg -72.676773 -7.948891 -1.738504
RightLeg 66.206877 -0.000000 -0.000000
RightFoot -35.841301 -22.024972 17.571257
RightToeBase 26.817532 -0.000000 -0.000000
1577
root 15.909172 29.568500 -20.834744 -558.362869 73.975732 -580.681928
Spine 13.913222 -5.211109 -3.299787
Head -19.639588 -8.639749 1.743040
LeftShoulder 7.348094 -38.561135 16.681723
LeftArm 52.968986 9.151268 -5.501200
LeftForeArm -1.095562 -0.000000 3.250955
LeftHand 1.246194 -0.000000 -6.299750
LeftHandThumb1 -26.253704 0.000000 33.147579
RightShoulder 2.550394 0.095672 -21.548536
RightArm 39.187401 34.075016 15.049442
RightForeArm -25.415451 -0.000000 8.231916
RightHand 0.837182 0.000000 8.937949
RightHandThumb1 -24.326973 -0.000000 -32.862282
LeftUpLeg 10.882021 2.898029 -5.001061
LeftLeg 2.170767 -0.000000 -0.000000
LeftFoot -46.217092 15.344110 -19.237617
LeftToeBase 22.344336 -0.000000 -0.000000
RightUpLeg -72.615769 -8.074620 -1.582995
RightLeg 66.409292 -0.000000 -0.000000
RightFoot -36.248800 -21.677144 17.853143
RightToeBase 27.167906 -0.000000 -0.000000
1578
root 15.969827 29.556664 -20.834819 -557.837746 73.935338 -580.144544
Spine 12.543044 -5.282485 -3.203358
Head -18.816090 -8.700087 1.400498
LeftShoulder 7.167480 -38.643791 16.769799
LeftArm 52.671867 8.607993 -4.931038
LeftForeArm -1.374834 -0.000000 3.250600
LeftHand 1.173256 -0.000000 -5.611527
LeftHandThumb1 -26.253704 0.000000 33.147579
RightShoulder 2.365606 0.101819 -21.821080
RightArm 39.384526 35.365364 15.290553
RightForeArm -26.718713 -0.000000 7.982546
RightHand 0.911092 -0.000000 8.512396
RightHandThumb1 -24.326973 -0.000000 -32.862282
LeftUpLeg 10.930330 2.955391 -4.882462
LeftLeg 2.209392 -0.000000 -0.000000
LeftFoot -46.256898 15.591356 -19.278219
LeftToeBase 22.255273 -0.000000 -0.000000
RightUpLeg -72.581932 -8.224585 -1.409242
RightLeg 66.603620 -0.000000 -0.000000
RightFoot -36.645589 -21.344120 18.133522
RightToeBase 27.542001 -0.000000 -0.000000
1579
root 16.033303 29.545106 -20.836467 -557.340848 73.873305 -579.621842
Spine 11.204148 -5.348029 -3.140122
Head -17.944042 -8.722533 1.159871
LeftShoulder 7.045951 -38.703175 16.927514
LeftArm 52.378191 7.980426 -4.460059
LeftForeArm -1.633142 -0.000000 3.115809
LeftHand 1.290787 -0.000000 -5.068131
LeftHandThumb1 -26.253704 0.000000 33.147579
RightShoulder 2.276967 0.249046 -21.907270
RightArm 38.810759 35.710805 14.282993
RightForeArm -26.969335 0.000000 7.937755
RightHand 0.569770 0.000000 7.975111
RightHandThumb1 -24.326973 -0.000000 -32.862282
LeftUpLeg 11.014736 2.979908 -4.784931
LeftLeg 2.213516 -0.000000 -0.000000
LeftFoot -46.278237 15.895705 -19.317915
LeftToeBase 22.214678 -0.000000 -0.000000
RightUpLeg -72.539002 -8.404364 -1.233636
RightLeg 66.799839 -0.000000 -0.000000
RightFoot -36.983091 -21.085350 18.355969
RightToeBase 27.857743 -0.000000 -0.000000
